<svg xmlns="http://www.w3.org/2000/svg" viewBox="0 0 800 600" role="img">
  <defs>
    <linearGradient id="bg" x1="0" y1="0" x2="0.4" y2="1">
      <stop offset="0" stop-color="#ffe3ef"/><stop offset="1" stop-color="#ffb8d4"/>
    </linearGradient>
    <radialGradient id="halo" cx="0.5" cy="0.42" r="0.55">
      <stop offset="0" stop-color="#fff0f6" stop-opacity="0.55"/><stop offset="1" stop-color="#fff0f6" stop-opacity="0"/>
    </radialGradient>
  </defs>
  <rect width="800" height="600" fill="url(#bg)"/>
  <rect width="800" height="600" fill="url(#halo)"/>
  <path transform="translate(660 140) scale(1.25)" d="M0 6 C-2 0 -10 0 -10 7 C-10 12 -4 16 0 20 C4 16 10 12 10 7 C10 0 2 0 0 6 Z" fill="#e2528f" opacity="0.7"/><path transform="translate(130 220) scale(0.8333333333333334)" d="M0 6 C-2 0 -10 0 -10 7 C-10 12 -4 16 0 20 C4 16 10 12 10 7 C10 0 2 0 0 6 Z" fill="#e2528f" opacity="0.5"/>
  <path d="M593.3 455.8 q117.5 -11.75 89.3 -98.7" stroke="#8c5e54" stroke-width="37.6" fill="none" stroke-linecap="round"/>
  <ellipse cx="410" cy="390" rx="235" ry="136.29999999999998" fill="#8c5e54"/>
  
    <path d="M241.08200000000002 223.385 L179.46500000000003 187.66500000000002 L178.572 268.035 Z" fill="#8c5e54"/>
      <path d="M221.436 226.064 L184.82300000000004 202.9353 L191.074 256.426 Z" fill="#e8a3a0"/><path d="M287.51800000000003 223.385 L349.135 187.66500000000002 L350.028 268.035 Z" fill="#8c5e54"/>
      <path d="M307.164 226.064 L343.777 202.9353 L337.526 256.426 Z" fill="#e8a3a0"/>
    <circle cx="264.3" cy="272.5" r="89.3" fill="#8c5e54"/>
    <path d="M214.292 265.356 Q228.58 279.644 242.86800000000002 265.356" stroke="#4a2c26" stroke-width="5" fill="none" stroke-linecap="round"/><path d="M285.73199999999997 265.356 Q300.02 279.644 314.308 265.356" stroke="#4a2c26" stroke-width="5" fill="none" stroke-linecap="round"/>
    <path d="M255.37 292.146 L273.23 292.146 L264.3 302.862 Z" fill="#e2528f"/>
    <path d="M264.3 302.862 q0 10.716 -12.502 12.502 M264.3 302.862 q0 10.716 12.502 12.502" stroke="#4a2c26" stroke-width="4" fill="none" stroke-linecap="round"/>
    <line x1="226.794" y1="293.504" x2="152.675" y2="286.504" stroke="#fff0f0" stroke-width="4" stroke-linecap="round" opacity="0.85"/><line x1="226.794" y1="303.504" x2="152.675" y2="303.504" stroke="#fff0f0" stroke-width="4" stroke-linecap="round" opacity="0.85"/><line x1="226.794" y1="313.504" x2="152.675" y2="320.504" stroke="#fff0f0" stroke-width="4" stroke-linecap="round" opacity="0.85"/><line x1="301.80600000000004" y1="293.504" x2="375.925" y2="286.504" stroke="#fff0f0" stroke-width="4" stroke-linecap="round" opacity="0.85"/><line x1="301.80600000000004" y1="303.504" x2="375.925" y2="303.504" stroke="#fff0f0" stroke-width="4" stroke-linecap="round" opacity="0.85"/><line x1="301.80600000000004" y1="313.504" x2="375.925" y2="320.504" stroke="#fff0f0" stroke-width="4" stroke-linecap="round" opacity="0.85"/><ellipse cx="410" cy="535" rx="265" ry="24" fill="#8c5e54" opacity="0.16"/>
</svg>