<svg xmlns="http://www.w3.org/2000/svg" viewBox="0 0 800 1000" role="img">
  <defs>
    <linearGradient id="bg" x1="0" y1="0" x2="0.4" y2="1">
      <stop offset="0" stop-color="#fff3df"/><stop offset="1" stop-color="#ffd9b8"/>
    </linearGradient>
    <radialGradient id="halo" cx="0.5" cy="0.42" r="0.55">
      <stop offset="0" stop-color="#ffffff" stop-opacity="0.55"/><stop offset="1" stop-color="#ffffff" stop-opacity="0"/>
    </radialGradient>
  </defs>
  <rect width="800" height="1000" fill="url(#bg)"/>
  <rect width="800" height="1000" fill="url(#halo)"/>
  
  <g transform="translate(140 200) rotate(-18)" fill="#e8823c" opacity="0.35">
    <ellipse cx="0" cy="11.700000000000001" rx="16.12" ry="13"/>
    <circle cx="-16.12" cy="-4.68" r="5.72"/>
    <circle cx="-5.72" cy="-10.92" r="5.72"/>
    <circle cx="5.72" cy="-10.92" r="5.72"/>
    <circle cx="16.12" cy="-4.68" r="5.72"/>
  </g>
  <g transform="translate(650 150) rotate(14)" fill="#e8823c" opacity="0.3">
    <ellipse cx="0" cy="9.9" rx="13.64" ry="11"/>
    <circle cx="-13.64" cy="-3.96" r="4.84"/>
    <circle cx="-4.84" cy="-9.24" r="4.84"/>
    <circle cx="4.84" cy="-9.24" r="4.84"/>
    <circle cx="13.64" cy="-3.96" r="4.84"/>
  </g>
  <g transform="translate(680 420) rotate(-8)" fill="#e8823c" opacity="0.25">
    <ellipse cx="0" cy="11.700000000000001" rx="16.12" ry="13"/>
    <circle cx="-16.12" cy="-4.68" r="5.72"/>
    <circle cx="-5.72" cy="-10.92" r="5.72"/>
    <circle cx="5.72" cy="-10.92" r="5.72"/>
    <circle cx="16.12" cy="-4.68" r="5.72"/>
  </g>
  <g transform="translate(110 520) rotate(10)" fill="#e8823c" opacity="0.28">
    <ellipse cx="0" cy="9.9" rx="13.64" ry="11"/>
    <circle cx="-13.64" cy="-3.96" r="4.84"/>
    <circle cx="-4.84" cy="-9.24" r="4.84"/>
    <circle cx="4.84" cy="-9.24" r="4.84"/>
    <circle cx="13.64" cy="-3.96" r="4.84"/>
  </g>
  <path d="M532.6 854.5 q158.1 20.400000000000002 140.25 -158.1" stroke="#e8823c" stroke-width="51" fill="none" stroke-linecap="round" class="tail"/>
  <ellipse cx="400" cy="721.9" rx="158.1" ry="183.6" fill="#e8823c"/>
  <ellipse cx="343.9" cy="869.8" rx="40.800000000000004" ry="22.95" fill="#f4a468"/>
  <ellipse cx="456.1" cy="869.8" rx="40.800000000000004" ry="22.95" fill="#f4a468"/>
  
    <path d="M372.154 438.595 L298.255 395.755 L297.18399999999997 492.145 Z" fill="#e8823c"/>
      <path d="M348.592 441.808 L304.681 414.0691 L312.178 478.222 Z" fill="#ffc9a3"/><path d="M427.846 438.595 L501.745 395.755 L502.81600000000003 492.145 Z" fill="#e8823c"/>
      <path d="M451.408 441.808 L495.319 414.0691 L487.822 478.222 Z" fill="#ffc9a3"/>
    <circle cx="400" cy="497.5" r="107.1" fill="#e8823c"/>
    <ellipse cx="357.15999999999997" cy="488.932" rx="12.851999999999999" ry="12.851999999999999" fill="#5b2f15"/><ellipse cx="442.84000000000003" cy="488.932" rx="12.851999999999999" ry="12.851999999999999" fill="#5b2f15"/>
    <path d="M389.29 521.062 L410.71 521.062 L400 533.914 Z" fill="#f06292"/>
    <path d="M400 533.914 q0 12.851999999999999 -14.994 14.994 M400 533.914 q0 12.851999999999999 14.994 14.994" stroke="#5b2f15" stroke-width="4" fill="none" stroke-linecap="round"/>
    <line x1="355.01800000000003" y1="523.488" x2="266.125" y2="516.488" stroke="#fff8ef" stroke-width="4" stroke-linecap="round" opacity="0.85"/><line x1="355.01800000000003" y1="533.488" x2="266.125" y2="533.488" stroke="#fff8ef" stroke-width="4" stroke-linecap="round" opacity="0.85"/><line x1="355.01800000000003" y1="543.488" x2="266.125" y2="550.488" stroke="#fff8ef" stroke-width="4" stroke-linecap="round" opacity="0.85"/><line x1="444.98199999999997" y1="523.488" x2="533.875" y2="516.488" stroke="#fff8ef" stroke-width="4" stroke-linecap="round" opacity="0.85"/><line x1="444.98199999999997" y1="533.488" x2="533.875" y2="533.488" stroke="#fff8ef" stroke-width="4" stroke-linecap="round" opacity="0.85"/><line x1="444.98199999999997" y1="543.488" x2="533.875" y2="550.488" stroke="#fff8ef" stroke-width="4" stroke-linecap="round" opacity="0.85"/>
</svg>