<svg xmlns="http://www.w3.org/2000/svg" viewBox="0 0 800 800" role="img">
  <defs>
    <linearGradient id="bg" x1="0" y1="0" x2="0.4" y2="1">
      <stop offset="0" stop-color="#fff3df"/><stop offset="1" stop-color="#ffd9b8"/>
    </linearGradient>
    <radialGradient id="halo" cx="0.5" cy="0.42" r="0.55">
      <stop offset="0" stop-color="#ffffff" stop-opacity="0.55"/><stop offset="1" stop-color="#ffffff" stop-opacity="0"/>
    </radialGradient>
  </defs>
  <rect width="800" height="800" fill="url(#bg)"/>
  <rect width="800" height="800" fill="url(#halo)"/>
  <path d="M120 124 L124.8 135.2 L136 140 L124.8 144.8 L120 156 L115.2 144.8 L104 140 L115.2 135.2 Z" fill="#ffb86b" opacity="0.7"/><path d="M660 588 L663.6 596.4 L672 600 L663.6 603.6 L660 612 L656.4 603.6 L648 600 L656.4 596.4 Z" fill="#ffb86b" opacity="0.6"/>
  <g transform="translate(680 160) rotate(18)" fill="#e8823c" opacity="0.3">
    <ellipse cx="0" cy="11.700000000000001" rx="16.12" ry="13"/>
    <circle cx="-16.12" cy="-4.68" r="5.72"/>
    <circle cx="-5.72" cy="-10.92" r="5.72"/>
    <circle cx="5.72" cy="-10.92" r="5.72"/>
    <circle cx="16.12" cy="-4.68" r="5.72"/>
  </g>
    <path d="M350.59999999999997 315.5 L219.5 239.5 L217.6 410.5 Z" fill="#e8823c"/>
      <path d="M308.79999999999995 321.2 L230.9 271.99 L244.2 385.8 Z" fill="#ffc9a3"/><path d="M449.40000000000003 315.5 L580.5 239.5 L582.4000000000001 410.5 Z" fill="#e8823c"/>
      <path d="M491.20000000000005 321.2 L569.1 271.99 L555.8000000000001 385.8 Z" fill="#ffc9a3"/>
    <circle cx="400" cy="420" r="190" fill="#e8823c"/>
    <ellipse cx="324" cy="404.8" rx="22.8" ry="22.8" fill="#5b2f15"/><ellipse cx="476" cy="404.8" rx="22.8" ry="22.8" fill="#5b2f15"/>
    <path d="M381 461.8 L419 461.8 L400 484.6 Z" fill="#f06292"/>
    <path d="M400 484.6 q0 22.8 -26.6 26.6 M400 484.6 q0 22.8 26.6 26.6" stroke="#5b2f15" stroke-width="4" fill="none" stroke-linecap="round"/>
    <line x1="320.2" y1="469.2" x2="162.5" y2="462.2" stroke="#fff8ef" stroke-width="4" stroke-linecap="round" opacity="0.85"/><line x1="320.2" y1="479.2" x2="162.5" y2="479.2" stroke="#fff8ef" stroke-width="4" stroke-linecap="round" opacity="0.85"/><line x1="320.2" y1="489.2" x2="162.5" y2="496.2" stroke="#fff8ef" stroke-width="4" stroke-linecap="round" opacity="0.85"/><line x1="479.8" y1="469.2" x2="637.5" y2="462.2" stroke="#fff8ef" stroke-width="4" stroke-linecap="round" opacity="0.85"/><line x1="479.8" y1="479.2" x2="637.5" y2="479.2" stroke="#fff8ef" stroke-width="4" stroke-linecap="round" opacity="0.85"/><line x1="479.8" y1="489.2" x2="637.5" y2="496.2" stroke="#fff8ef" stroke-width="4" stroke-linecap="round" opacity="0.85"/>
</svg>