<svg xmlns="http://www.w3.org/2000/svg" viewBox="0 0 800 800" role="img">
  <defs>
    <linearGradient id="bg" x1="0" y1="0" x2="0.4" y2="1">
      <stop offset="0" stop-color="#2b2550"/><stop offset="1" stop-color="#171430"/>
    </linearGradient>
    <radialGradient id="halo" cx="0.5" cy="0.42" r="0.55">
      <stop offset="0" stop-color="#7c6bd4" stop-opacity="0.55"/><stop offset="1" stop-color="#7c6bd4" stop-opacity="0"/>
    </radialGradient>
  </defs>
  <rect width="800" height="800" fill="url(#bg)"/>
  <rect width="800" height="800" fill="url(#halo)"/>
  <path d="M130 114 L134.8 125.2 L146 130 L134.8 134.8 L130 146 L125.2 134.8 L114 130 L125.2 125.2 Z" fill="#f5e08a" opacity="0.9"/><path d="M660 188 L663.6 196.4 L672 200 L663.6 203.6 L660 212 L656.4 203.6 L648 200 L656.4 196.4 Z" fill="#f5e08a" opacity="0.7"/><path d="M580 81 L582.7 87.3 L589 90 L582.7 92.7 L580 99 L577.3 92.7 L571 90 L577.3 87.3 Z" fill="#ffffff" opacity="0.6"/><path d="M180 610 L183 617 L190 620 L183 623 L180 630 L177 623 L170 620 L177 617 Z" fill="#f5e08a" opacity="0.5"/>
    <path d="M351.9 328.25 L224.25 254.25 L222.39999999999998 420.75 Z" fill="#3b3266"/>
      <path d="M311.2 333.8 L235.35 285.885 L248.29999999999998 396.7 Z" fill="#5d4f97"/><path d="M448.09999999999997 328.25 L575.75 254.25 L577.5999999999999 420.75 Z" fill="#3b3266"/>
      <path d="M488.79999999999995 333.8 L564.65 285.885 L551.6999999999999 396.7 Z" fill="#5d4f97"/>
    <circle cx="400" cy="430" r="185" fill="#3b3266"/>
    <ellipse cx="326" cy="415.2" rx="22.2" ry="29.6" fill="#cdc3f5"/><ellipse cx="474" cy="415.2" rx="22.2" ry="29.6" fill="#cdc3f5"/>
    <path d="M381.5 470.7 L418.5 470.7 L400 492.9 Z" fill="#f495c4"/>
    <path d="M400 492.9 q0 22.2 -25.900000000000002 25.900000000000002 M400 492.9 q0 22.2 25.900000000000002 25.900000000000002" stroke="#cdc3f5" stroke-width="4" fill="none" stroke-linecap="round"/>
    <line x1="322.3" y1="477.8" x2="168.75" y2="470.8" stroke="#9d92cc" stroke-width="4" stroke-linecap="round" opacity="0.85"/><line x1="322.3" y1="487.8" x2="168.75" y2="487.8" stroke="#9d92cc" stroke-width="4" stroke-linecap="round" opacity="0.85"/><line x1="322.3" y1="497.8" x2="168.75" y2="504.8" stroke="#9d92cc" stroke-width="4" stroke-linecap="round" opacity="0.85"/><line x1="477.7" y1="477.8" x2="631.25" y2="470.8" stroke="#9d92cc" stroke-width="4" stroke-linecap="round" opacity="0.85"/><line x1="477.7" y1="487.8" x2="631.25" y2="487.8" stroke="#9d92cc" stroke-width="4" stroke-linecap="round" opacity="0.85"/><line x1="477.7" y1="497.8" x2="631.25" y2="504.8" stroke="#9d92cc" stroke-width="4" stroke-linecap="round" opacity="0.85"/>
</svg>